<svg xmlns="http://www.w3.org/2000/svg" width="81.175" height="58.504" viewBox="0 0 81.175 58.504"><defs><style>.a{fill:#1d3573;}</style></defs><g transform="translate(-785.5 -935.092)"><path class="a" d="M75.23,71.5H71.066a1.189,1.189,0,0,0-1.189,1.189c0,.657-2.843.657-2.843,0A1.189,1.189,0,0,0,65.845,71.5H5.945A5.952,5.952,0,0,0,0,77.445V90.554a1.189,1.189,0,0,0,2.378,0V85.293H78.8v30.657a1.189,1.189,0,0,0,2.378,0V77.445A5.952,5.952,0,0,0,75.23,71.5Z" transform="translate(785.5 863.592)"/><path class="a" d="M79.986,241.675a1.189,1.189,0,0,0-1.189,1.189v3.093a3.571,3.571,0,0,1-3.567,3.567H5.945a3.571,3.571,0,0,1-3.567-3.567v-28.4a1.189,1.189,0,0,0-2.378,0v28.4A5.952,5.952,0,0,0,5.945,251.9H75.23a5.952,5.952,0,0,0,5.945-5.945v-3.093A1.189,1.189,0,0,0,79.986,241.675Z" transform="translate(785.5 741.692)"/><path class="a" d="M59.784,232.609a1.189,1.189,0,0,0-1.682,0l-7.146,7.146a1.189,1.189,0,0,0,0,1.682l7.051,7.051a1.189,1.189,0,0,0,1.682-1.682l-6.21-6.21,6.3-6.3A1.189,1.189,0,0,0,59.784,232.609Z" transform="translate(742.915 728.318)"/><path class="a" d="M206.994,248.487a1.189,1.189,0,0,0,1.682,0l7.051-7.051a1.19,1.19,0,0,0,0-1.682l-7.146-7.146a1.189,1.189,0,0,0-1.682,1.682l6.3,6.3-6.21,6.21A1.189,1.189,0,0,0,206.994,248.487Z" transform="translate(611.697 728.319)"/><path class="a" d="M125.679,231.469a1.189,1.189,0,0,0,1.112-.767l8.449-22.259a1.189,1.189,0,1,0-2.223-.844l-8.45,22.26a1.19,1.19,0,0,0,1.111,1.611Z" transform="translate(680.748 749.717)"/><path class="a" d="M33.006,96.438a3.567,3.567,0,1,0,3.567-3.567A3.571,3.571,0,0,0,33.006,96.438Zm4.756,0a1.189,1.189,0,1,1-1.189-1.189A1.19,1.19,0,0,1,37.762,96.438Z" transform="translate(757.727 845.609)"/><path class="a" d="M91.166,96.438a3.567,3.567,0,1,0,3.567-3.567A3.571,3.571,0,0,0,91.166,96.438Zm4.756,0a1.189,1.189,0,1,1-1.189-1.189A1.19,1.19,0,0,1,95.922,96.438Z" transform="translate(708.788 845.609)"/><path class="a" d="M149.325,96.438a3.567,3.567,0,1,0,3.567-3.567A3.571,3.571,0,0,0,149.325,96.438Zm4.756,0a1.189,1.189,0,1,1-1.189-1.189A1.19,1.19,0,0,1,154.081,96.438Z" transform="translate(659.85 845.609)"/><path class="a" d="M316.567,204.5h7.452a3.567,3.567,0,1,0,0-7.134h-7.452a3.567,3.567,0,0,0,0,7.134Z" transform="translate(522.125 757.68)"/><path class="a" d="M316.567,264.5h19.66a3.567,3.567,0,0,0,0-7.135h-19.66a3.567,3.567,0,0,0,0,7.135Z" transform="translate(522.125 707.192)"/><path class="a" d="M316.567,324.5h13.82a3.567,3.567,0,0,0,0-7.135h-13.82a3.567,3.567,0,0,0,0,7.135Z" transform="translate(522.125 656.705)"/></g></svg>