<svg xmlns="http://www.w3.org/2000/svg" width="121.941" height="132.057" viewBox="0 0 121.941 132.057"><defs><style>.a{fill:#0096f2;}.b{fill:#151a6a;}</style></defs><g transform="translate(0 0)"><g transform="translate(20.555 45.225)"><path class="a" d="M31,43H16.611A4.111,4.111,0,0,0,12.5,47.111v37a2.056,2.056,0,0,0,2.056,2.056H31a2.056,2.056,0,0,0,2.056-2.056V45.056A2.056,2.056,0,0,0,31,43Z" transform="translate(-12.5 0.17)"/><rect class="a" width="21" height="36" rx="1" transform="translate(26.386 50.832)"/><rect class="a" width="21" height="52" rx="1" transform="translate(53.386 34.832)"/><rect class="a" width="21" height="68" rx="1" transform="translate(80.386 18.832)"/><path class="a" d="M20.669,59A6.142,6.142,0,0,0,25.6,56.5l15.654,4.817a6.157,6.157,0,0,0,12.3-.261,6.092,6.092,0,0,0-.142-1.293L70.275,49.394a6.1,6.1,0,0,0,3.842,1.386,6.167,6.167,0,0,0,6.167-6.167,6.093,6.093,0,0,0-.142-1.293L97,32.949a6.1,6.1,0,0,0,3.842,1.386,6.167,6.167,0,1,0-6.167-6.167,6.094,6.094,0,0,0,.142,1.293L77.96,39.831a6.1,6.1,0,0,0-3.842-1.386,6.167,6.167,0,0,0-6.167,6.167,6.093,6.093,0,0,0,.142,1.293L51.236,56.277a6.077,6.077,0,0,0-8.776,1.114L26.806,52.574A6.157,6.157,0,1,0,20.669,59Z" transform="translate(-10.391 -22)"/></g><path class="b" d="M69.47,0A34.9,34.9,0,0,0,40.809,54.887l-3.585,3.585a6.167,6.167,0,0,0-7,1.188L5.513,84.37A10.278,10.278,0,1,0,20.047,98.9L44.762,74.194a6.167,6.167,0,0,0,1.182-7l3.587-3.587A34.932,34.932,0,1,0,69.47,0ZM41.853,71.287,17.14,96a6.315,6.315,0,0,1-8.72,0,6.167,6.167,0,0,1,0-8.72l24.71-24.714a2.056,2.056,0,0,1,2.907,0l5.816,5.816a2.056,2.056,0,0,1,0,2.9Zm1.453-7.267L40.4,61.112l2.987-2.989a35.311,35.311,0,0,0,2.9,2.909ZM69.47,65.782a30.835,30.835,0,1,1,30.836-30.835A30.835,30.835,0,0,1,69.47,65.782Z" transform="translate(-2.501 0)"/><path class="b" d="M48.8,4A26.724,26.724,0,1,0,75.526,30.724,26.724,26.724,0,0,0,48.8,4Zm0,49.337A22.613,22.613,0,1,1,71.415,30.724,22.613,22.613,0,0,1,48.8,53.337Z" transform="translate(18.166 4.222)"/><path class="b" d="M32.294,22.439l8.223-8.223a2.056,2.056,0,1,0-2.907-2.907l-8.223,8.223a2.056,2.056,0,1,0,2.907,2.907Z" transform="translate(25.247 11.303)"/><path class="b" d="M53.144,11.6a2.056,2.056,0,0,0-2.907,0L29.68,32.159a2.056,2.056,0,1,0,2.907,2.907L53.144,14.509a2.056,2.056,0,0,0,0-2.907Z" transform="translate(25.556 11.613)"/><path class="b" d="M44.2,17.9l-8.223,8.223a2.056,2.056,0,1,0,2.907,2.907L47.1,20.8A2.056,2.056,0,1,0,44.2,17.9Z" transform="translate(32.2 18.256)"/></g></svg>