<svg xmlns="http://www.w3.org/2000/svg" width="150.005" height="134.227" viewBox="0 0 150.005 134.227"><defs><style>.a{fill:#0096f2;}.b{fill:none;stroke:#151a6a;stroke-width:4.3px;}</style></defs><g transform="translate(2.15 2.15)"><path class="a" d="M296.734,147.466l18.4-18.4-18.4-18.4L299.7,107.7a13.154,13.154,0,0,0-18.6-18.6l-2.965,2.965-18.4-18.4-5.429,5.43v8.582a21.832,21.832,0,0,1,0,42.473v26.612H238.375l-3.175,3.175,24.533,24.532,18.4-18.4,2.555,2.556a13.155,13.155,0,0,0,18.6-18.6Zm0,0" transform="translate(-167.278 -52.392)"/><path class="b" d="M78.35,95.7V69.677h3.613a13.155,13.155,0,1,0,0-26.309H78.35V17.347H52.33V13.155a13.155,13.155,0,1,0-26.309,0v4.192H0V43.368H3.614a13.175,13.175,0,0,1,12.9,10.556,4.452,4.452,0,0,1,0,5.2,13.176,13.176,0,0,1-12.9,10.556H0V95.7H26.02V91.5a13.155,13.155,0,0,1,26.309,0V95.7Zm0,0" transform="translate(0.001 0)"/></g></svg>