<svg xmlns="http://www.w3.org/2000/svg" width="108.042" height="107.727" viewBox="0 0 108.042 107.727"><defs><style>.a{fill:#0096f2;}.b{fill:#151a6a;}</style></defs><g transform="translate(0 0)"><g transform="translate(20.85 20.529)"><path class="a" d="M46.223,91.924a5.174,5.174,0,0,1-3.685,1.527H21.688a5.213,5.213,0,0,1-5.213-5.213V67.388A5.174,5.174,0,0,1,18,63.7L64.706,17H21.688A8.7,8.7,0,0,0,13,25.688V88.239a8.7,8.7,0,0,0,8.688,8.688H84.239a8.7,8.7,0,0,0,8.688-8.688V45.223Z" transform="translate(-13 -9.728)"/><path class="a" d="M17,48.414V65.07a1.738,1.738,0,0,0,1.738,1.738H35.394Z" transform="translate(-10.05 13.44)"/><path class="a" d="M70.288,40.921A16.464,16.464,0,1,0,47,17.637Z" transform="translate(12.08 -12.815)"/><path class="a" d="M66.618,17,17.458,66.16a1.706,1.706,0,0,0-.389.629L40.137,89.856a1.706,1.706,0,0,0,.629-.389l49.16-49.16Zm-31.3,57.069a1.738,1.738,0,1,1-2.457-2.459L71.682,32.789a1.738,1.738,0,1,1,2.455,2.455Z" transform="translate(-9.999 -9.728)"/></g><path class="b" d="M75.714,1H9.688A8.7,8.7,0,0,0,1,9.688V75.714A8.7,8.7,0,0,0,9.688,84.4H75.714A8.7,8.7,0,0,0,84.4,75.714V9.688A8.7,8.7,0,0,0,75.714,1Zm5.213,74.714a5.213,5.213,0,0,1-5.213,5.213H9.688a5.213,5.213,0,0,1-5.213-5.213V9.688A5.213,5.213,0,0,1,9.688,4.475H75.714a5.213,5.213,0,0,1,5.213,5.213Z" transform="translate(-1 -1)"/><path class="b" d="M51.816,28.509a1.738,1.738,0,0,0-2.457,0l-9.2,9.2-9.2-9.2a1.737,1.737,0,1,0-2.457,2.457l9.2,9.2-9.2,9.2a1.737,1.737,0,1,0,2.457,2.457l9.2-9.2,9.2,9.2a1.737,1.737,0,1,0,2.457-2.457l-9.2-9.2,9.2-9.2a1.738,1.738,0,0,0,0-2.457Z" transform="translate(18.913 18.913)"/><path class="b" d="M8.509,31.816a1.738,1.738,0,0,0,2.457,0l9.2-9.2,9.2,9.2a1.737,1.737,0,1,0,2.457-2.457l-9.2-9.2,9.2-9.2a1.737,1.737,0,1,0-2.457-2.457l-9.2,9.2-9.2-9.2a1.737,1.737,0,1,0-2.457,2.457l9.2,9.2-9.2,9.2a1.738,1.738,0,0,0,0,2.457Z" transform="translate(4.163 4.162)"/><path class="b" d="M70.338,6H61.65a1.738,1.738,0,1,0,0,3.475h4.493L25.485,50.133A12.218,12.218,0,1,0,27.942,52.6L68.6,11.932v4.493a1.738,1.738,0,0,0,3.475,0V7.738A1.738,1.738,0,0,0,70.338,6ZM18.211,68.551A8.688,8.688,0,1,1,26.9,59.863,8.688,8.688,0,0,1,18.211,68.551Z" transform="translate(2.639 2.687)"/></g></svg>