<svg xmlns="http://www.w3.org/2000/svg" width="125.708" height="128" viewBox="0 0 125.708 128"><defs><style>.a{fill:#0096f2;}.b{fill:#151a6a;}</style></defs><g transform="translate(0 0)"><rect class="a" width="29" height="37" rx="1" transform="translate(26.708 91)"/><rect class="a" width="29" height="70" rx="1" transform="translate(61.708 58)"/><rect class="a" width="29" height="95" rx="1" transform="translate(96.708 33)"/><g transform="translate(0 0)"><path class="b" d="M81.171,48.464l-9.818-3.678A51.941,51.941,0,0,0,45.7,1.28a2.056,2.056,0,0,0-2.072,0A51.941,51.941,0,0,0,17.987,44.787l-9.818,3.68A10.334,10.334,0,0,0,1.5,58.091V69.077a6.167,6.167,0,0,0,8.33,5.774l8.206-3.069a6.167,6.167,0,0,0,6.077,5.279v4.111A6.167,6.167,0,0,0,30.28,87.34H59.06a6.167,6.167,0,0,0,6.167-6.167V77.061A6.167,6.167,0,0,0,71.3,71.782l8.206,3.069a6.167,6.167,0,0,0,8.33-5.774V58.091a10.334,10.334,0,0,0-6.669-9.627ZM44.67,5.453a47.342,47.342,0,0,1,8.469,6.714,22.43,22.43,0,0,1-16.939,0,47.343,47.343,0,0,1,8.47-6.714ZM8.389,71a2.056,2.056,0,0,1-2.777-1.924V58.091a6.2,6.2,0,0,1,4-5.777l8.332-3.123V67.426ZM61.115,81.172a2.056,2.056,0,0,1-2.056,2.056H30.28a2.056,2.056,0,0,1-2.056-2.056V77.061H61.115Zm6.167-10.278a2.056,2.056,0,0,1-2.056,2.056H24.113a2.056,2.056,0,0,1-2.056-2.056V46a47.807,47.807,0,0,1,11.22-30.689A26.406,26.406,0,0,0,44.67,17.945a26.406,26.406,0,0,0,11.393-2.631A47.807,47.807,0,0,1,67.282,46Zm16.446-1.817A2.056,2.056,0,0,1,80.951,71l-9.557-3.575V49.192l8.332,3.123a6.2,6.2,0,0,1,4,5.776Z" transform="translate(-1.5 -1)"/><path class="b" d="M30.946,14A16.446,16.446,0,1,0,47.391,30.446,16.446,16.446,0,0,0,30.946,14Zm0,28.78a12.334,12.334,0,0,1-10.657-6.153,12.277,12.277,0,0,1,21.314,0A12.334,12.334,0,0,1,30.946,42.78ZM43.2,31.823a16.419,16.419,0,0,0-24.5,0,12.334,12.334,0,1,1,24.5,0Z" transform="translate(12.224 12.725)"/><path class="b" d="M23.556,45A2.056,2.056,0,0,0,21.5,47.056v8.223a2.056,2.056,0,1,0,4.111,0V47.056A2.056,2.056,0,0,0,23.556,45Z" transform="translate(19.614 45.451)"/><path class="b" d="M16.556,45A2.056,2.056,0,0,0,14.5,47.056v8.223a2.056,2.056,0,1,0,4.111,0V47.056A2.056,2.056,0,0,0,16.556,45Z" transform="translate(12.224 45.451)"/><path class="b" d="M30.556,45A2.056,2.056,0,0,0,28.5,47.056v8.223a2.056,2.056,0,1,0,4.111,0V47.056A2.056,2.056,0,0,0,30.556,45Z" transform="translate(27.004 45.451)"/></g></g></svg>