<svg xmlns="http://www.w3.org/2000/svg" width="78.603" height="64.42" viewBox="0 0 78.603 64.42"><defs><style>.a{fill:#1d3573;}</style></defs><g transform="translate(-1078.723 -932.375)"><path class="a" d="M234.285,316.652a3.334,3.334,0,1,0,3.334-3.334A3.337,3.337,0,0,0,234.285,316.652Zm4.364,0a1.031,1.031,0,1,1-1.031-1.031A1.032,1.032,0,0,1,238.649,316.652Z" transform="translate(880.406 660.066)"/><path class="a" d="M101.471,98.167V81.27A2.073,2.073,0,0,0,99.4,79.2H35.071A2.073,2.073,0,0,0,33,81.27v30.245a2.073,2.073,0,0,0,2.071,2.071H99.4a2.073,2.073,0,0,0,2.071-2.071V98.167s-2.3,3.968-2.3,13.116H35.3v0H100.32C100.32,111.919,101.471,98.8,101.471,98.167Z" transform="translate(1050.789 858.243)"/><path class="a" d="M75.142,46.2H14.051a1.151,1.151,0,1,0,0,2.3h61.09A1.16,1.16,0,0,1,76.3,49.66V94.535a1.16,1.16,0,0,1-1.159,1.159H3.462A1.16,1.16,0,0,1,2.3,94.535V49.66A1.16,1.16,0,0,1,3.462,48.5H9.448a1.151,1.151,0,1,0,0-2.3H3.462A3.466,3.466,0,0,0,0,49.66V94.535A3.466,3.466,0,0,0,3.462,98h24l-1.4,2.249a1.152,1.152,0,0,0,1.957,1.215L30.177,98H48.427l6.405,10.317H23.772l1.4-2.249a1.152,1.152,0,0,0-1.957-1.215l-2.151,3.464H17.039a1.151,1.151,0,1,0,0,2.3H61.564a1.151,1.151,0,1,0,0-2.3H57.542L51.137,98h24A3.466,3.466,0,0,0,78.6,94.535V49.66A3.466,3.466,0,0,0,75.142,46.2Z" transform="translate(1078.723 886.178)"/></g></svg>