<svg xmlns="http://www.w3.org/2000/svg" width="67.171" height="67.164" viewBox="0 0 67.171 67.164"><defs><style>.a{fill:#1d3573;}</style></defs><g transform="translate(-1376.083 -929.248)"><path class="a" d="M211.924,7.8a1.915,1.915,0,0,0,1.913-1.913V1.936A1.915,1.915,0,0,0,211.924.023h-3.952a1.915,1.915,0,0,0-1.913,1.913v.991H184.073a3.889,3.889,0,0,0-7.525,0h-6.712a.985.985,0,0,0,0,1.971h6.712a3.889,3.889,0,0,0,7.525,0h21.985v.991A1.915,1.915,0,0,0,207.972,7.8h.991V29.892a3.889,3.889,0,0,0,0,7.557V59.409h-.991a1.915,1.915,0,0,0-1.913,1.913v1.122h-3.522a.985.985,0,1,0,0,1.971h3.522v.859a1.915,1.915,0,0,0,1.913,1.913h3.952a1.915,1.915,0,0,0,1.913-1.913V61.322a1.915,1.915,0,0,0-1.913-1.913h-.991V37.415a3.888,3.888,0,0,0,0-7.488V7.8ZM180.31,5.831a1.919,1.919,0,1,1,1.919-1.919A1.921,1.921,0,0,1,180.31,5.831Zm31.49,27.84a1.919,1.919,0,1,1-1.919-1.919A1.921,1.921,0,0,1,211.8,33.671ZM208.029,1.994h3.837V5.831h-3.837Z" transform="translate(1229.417 929.225)"/><path class="a" d="M51.671,62.444H37.533V61.322a1.915,1.915,0,0,0-1.913-1.913h-.936V57.187a.985.985,0,0,0-1.971,0v2.222H31.668a1.915,1.915,0,0,0-1.913,1.913v1.122H7.779V61.322a1.915,1.915,0,0,0-1.913-1.913H4.875V37.56h1.07a1.836,1.836,0,0,0,1.834-1.834v-1.2h2.294a.985.985,0,1,0,0-1.971H7.779v-.939a1.836,1.836,0,0,0-1.834-1.834H4.875V7.8h.991A1.915,1.915,0,0,0,7.779,5.888V4.9H18.97a.985.985,0,1,0,0-1.971H7.779V1.936A1.915,1.915,0,0,0,5.865.023H1.913A1.916,1.916,0,0,0,0,1.936V5.888A1.915,1.915,0,0,0,1.913,7.8H2.9v21.98H1.834A1.836,1.836,0,0,0,0,31.616v4.111A1.836,1.836,0,0,0,1.834,37.56H2.9V59.409H1.913A1.916,1.916,0,0,0,0,61.322v3.952a1.915,1.915,0,0,0,1.913,1.913H5.865a1.915,1.915,0,0,0,1.913-1.913v-.859H29.755v.859a1.915,1.915,0,0,0,1.913,1.913H35.62a1.915,1.915,0,0,0,1.913-1.913v-.859H51.671a.985.985,0,0,0,0-1.971ZM1.971,1.994v0Zm0,33.6Zm0,29.627Zm29.755,0Z" transform="translate(1376.083 929.225)"/><path class="a" d="M160.648,250.087h2.471a.985.985,0,1,0,0-1.971h-2.471a.985.985,0,0,0,0,1.971Z" transform="translate(1237.397 713.727)"/><path class="a" d="M100.675,248.423a.985.985,0,1,0,0,1.971h2.471a.985.985,0,1,0,0-1.971Z" transform="translate(1289.491 713.46)"/><path class="a" d="M250.466,323.759a.985.985,0,0,0,.985-.985V320.3a.985.985,0,0,0-1.971,0v2.471A.985.985,0,0,0,250.466,323.759Z" transform="translate(1159.38 651.881)"/><path class="a" d="M250.773,383.732a.985.985,0,0,0,.985-.985v-2.471a.985.985,0,1,0-1.971,0v2.471A.985.985,0,0,0,250.773,383.732Z" transform="translate(1159.113 599.787)"/><path class="a" d="M166.342,182.842a.985.985,0,0,0-1.96-.2l-.426,4.092a.985.985,0,0,0,.98,1.087,1.021,1.021,0,0,0,.1-.005l3.917-.408a.985.985,0,1,0-.2-1.96l-1.115.116,6.068-6.068a1.828,1.828,0,0,0,.427.052h1.07v1.486a.985.985,0,0,0,1.971,0v-1.486h1.07a1.836,1.836,0,0,0,1.834-1.834V173.6a1.829,1.829,0,0,0-.052-.427l5.942-5.941-.116,1.115a.985.985,0,0,0,.878,1.082,1.008,1.008,0,0,0,.1.005.986.986,0,0,0,.979-.884l.408-3.917a.985.985,0,0,0-1.082-1.082l-4.092.426a.985.985,0,0,0,.2,1.96l1.367-.142-6.008,6.008a1.837,1.837,0,0,0-.365-.037H174.13A1.836,1.836,0,0,0,172.3,173.6v1.07h-1.486a.985.985,0,0,0,0,1.971H172.3v1.07a1.838,1.838,0,0,0,.037.365l-6.134,6.134Zm7.925-5.268Z" transform="translate(1233.673 787.187)"/><rect class="a" width="31" height="31" transform="translate(1380.083 961.248)"/></g></svg>