<svg xmlns="http://www.w3.org/2000/svg" width="72.785" height="72.785" viewBox="0 0 72.785 72.785"><defs><style>.a{fill:#1d3573;}</style></defs><g transform="translate(-785.696 -1221.089)"><path class="a" d="M72.222,64.684l-1.038-1.038a1.066,1.066,0,1,0-1.508,1.508l.887.888-4.523,4.523-7.69-7.69,4.523-4.523,3.587,3.587a1.066,1.066,0,1,0,1.508-1.508L63.63,56.091l0,0-3.016-3.016,0,0L57.949,50.41a1.919,1.919,0,0,0-2.714,0l-.151.151-3.815-3.816a28.693,28.693,0,0,0,5.652-11.856h7.512a1.066,1.066,0,1,0,0-2.132H57.3q.141-1.017.21-2.056H69.515a1.066,1.066,0,1,0,0-2.132H57.571q-.008-1.035-.086-2.056h6.948a1.066,1.066,0,1,0,0-2.132H57.242A28.439,28.439,0,0,0,51.37,10.933,1.066,1.066,0,0,0,49.7,12.257a26.377,26.377,0,0,1,5.743,16.53,26.654,26.654,0,1,1-8.733-19.73,1.066,1.066,0,1,0,1.434-1.578A28.787,28.787,0,1,0,23.348,57.056v7.193a1.066,1.066,0,0,0,2.132,0V57.383q1.018.117,2.056.162V69.263a1.066,1.066,0,0,0,2.132,0v-11.7q1.037-.031,2.056-.134v6.824a1.066,1.066,0,0,0,2.132,0V57.126a28.674,28.674,0,0,0,12.887-5.858l3.816,3.815-.151.151a1.919,1.919,0,0,0,0,2.714l2.662,2.662,0,0,3.016,3.016,0,0,8.592,8.592a1.919,1.919,0,0,0,2.714,0L72.222,67.4a1.919,1.919,0,0,0,0-2.714ZM49.872,48.363l3.7,3.7-1.508,1.508-3.7-3.7q.782-.726,1.509-1.509Zm6.971,13-1.508-1.508,4.523-4.523,1.508,1.508Zm-.251-9.3,1.759,1.759L53.827,58.35l-1.759-1.759Z" transform="translate(785.696 1221.089)"/><path class="a" d="M39.666,74.039a25.01,25.01,0,0,0,14.847,5.005,24.522,24.522,0,1,0,0-49.044,24.233,24.233,0,0,0-17.282,7.192,24.775,24.775,0,0,0-7.24,17.319,23.967,23.967,0,0,0,6.169,16.32c.394.438,3.034,2.854,3.505,3.208Z" transform="translate(759.969 1195.354)"/><path class="a" d="M110.012,68.5h-7.392a1.637,1.637,0,0,0-1.635,1.635V73.9H94.09a1.637,1.637,0,0,0-1.635,1.635V86.98H91.028a1.066,1.066,0,0,0,0,2.132H121.6a1.066,1.066,0,0,0,0-2.132h-1.427V80.939a1.637,1.637,0,0,0-1.635-1.635h-6.895V70.135A1.637,1.637,0,0,0,110.012,68.5ZM94.588,76.034h6.4V86.98h-6.4Zm8.529-5.4h6.4V86.98h-6.4Zm14.927,10.8V86.98h-6.4V81.436Z" transform="translate(708.523 1162.326)"/><path class="a" d="M140.03,237.789h-5.019l-2.28-5.829a1.066,1.066,0,0,0-1.993.018l-3.116,8.4-2.178-6.173a1.066,1.066,0,0,0-1.936-.165l-2.091,3.746H116.41a1.066,1.066,0,1,0,0,2.132h5.632a1.066,1.066,0,0,0,.931-.546l1.246-2.231,2.373,6.725a1.066,1.066,0,0,0,1,.712h.009a1.066,1.066,0,0,0,1-.7l3.168-8.542,1.526,3.9a1.066,1.066,0,0,0,.993.678h5.747a1.066,1.066,0,1,0,0-2.132Z" transform="translate(686.749 1022.685)"/></g></svg>