<svg xmlns="http://www.w3.org/2000/svg" width="70.607" height="70.607" viewBox="0 0 70.607 70.607"><defs><style>.a{fill:#1d3573;}</style></defs><g transform="translate(-1082.722 -1218.979)"><path class="a" d="M147.265,297.36V279.3a1.127,1.127,0,0,0-1.127-1.127h-7.511a1.127,1.127,0,1,0,0,2.253h6.385V297.36a4.882,4.882,0,1,0,2.253,0Zm-3.756,4.75Z" transform="translate(965.878 982.593)"/><path class="a" d="M227.266,297.36V279.3a1.127,1.127,0,0,0-1.127-1.127h-7.511a1.127,1.127,0,1,0,0,2.253h6.384V297.36a4.882,4.882,0,1,0,2.253,0Zm-3.756,4.75Z" transform="translate(897.895 982.593)"/><path class="a" d="M314.4,289.716a4.89,4.89,0,0,0-4.75,3.756h-2.386V279.3a1.127,1.127,0,0,0-1.127-1.127h-7.511a1.127,1.127,0,1,0,0,2.253h6.385V294.6a1.127,1.127,0,0,0,1.127,1.127h3.513a4.882,4.882,0,1,0,4.75-6.009Z" transform="translate(829.914 982.593)"/><path class="a" d="M67.924,24.27a12.23,12.23,0,0,0-5.876-3.995,21.33,21.33,0,0,0-39.49-10.092,9.74,9.74,0,0,0-12.434,7.231,13.532,13.532,0,0,0,3.408,26.628h2.618V57.086H13.763a4.882,4.882,0,1,0,0,2.253h3.513A1.127,1.127,0,0,0,18.4,58.213v-15.3a1.127,1.127,0,0,0-1.127-1.127H13.531A11.279,11.279,0,0,1,11.325,19.45a1.126,1.126,0,0,0,.9-.959A7.483,7.483,0,0,1,22.606,12.6a1.127,1.127,0,0,0,1.434-.489,19.077,19.077,0,0,1,35.779,9.039,1.127,1.127,0,0,0,.873,1.087A9.9,9.9,0,0,1,58.45,41.789h-.613a1.127,1.127,0,1,0,0,2.253h.613A12.155,12.155,0,0,0,67.924,24.27ZM6.385,58.213Z" transform="translate(1082.722 1218.979)"/><path class="a" d="M353.864,107.584h.01a1.127,1.127,0,0,0,1.117-1.137,15.16,15.16,0,0,0-1.041-5.4,1.127,1.127,0,0,0-2.1.82,12.912,12.912,0,0,1,.887,4.6A1.127,1.127,0,0,0,353.864,107.584Z" transform="translate(783.794 1133.719)"/><path class="a" d="M274.927,47.024a1.127,1.127,0,1,0,1.737-1.435A15.283,15.283,0,0,0,264.854,40a1.127,1.127,0,1,0,0,2.253A13.038,13.038,0,0,1,274.927,47.024Z" transform="translate(858.614 1184.987)"/></g></svg>