<svg xmlns="http://www.w3.org/2000/svg" width="70.385" height="69.68" viewBox="0 0 70.385 69.68"><defs><style>.a{fill:#1d3573;}</style></defs><g transform="translate(-1380.37 -1219.193)"><path class="a" d="M43.654,26.178l-.8-2.126c-.712.267-1.434.511-2.147.727l.656,2.173C42.127,26.722,42.9,26.462,43.654,26.178Z" transform="translate(1384.74 1221.311)"/><path class="a" d="M37.27,30.966V27.914c.842-.135,1.688-.3,2.527-.494l-.512-2.213c-1.094.254-2.2.454-3.3.6L35,25.937v5.03c0,.3.007.607.023.909l2.268-.116c-.014-.265-.02-.528-.02-.795Z" transform="translate(1383.968 1221.467)"/><path class="a" d="M19.811,13a6.811,6.811,0,1,0,6.811,6.811A6.818,6.818,0,0,0,19.811,13Z" transform="translate(1380.993 1219.815)"/><path class="a" d="M47.436,18.823l-.542-.294-.542.294a30.341,30.341,0,0,1-14.225,3.645L31,22.475v9.394A23.561,23.561,0,0,0,46.506,53.953l.387.14.387-.14A23.561,23.561,0,0,0,62.787,31.869V22.475l-1.128-.007a30.349,30.349,0,0,1-14.222-3.645Zm13.08,13.046a21.284,21.284,0,0,1-13.623,19.8,21.286,21.286,0,0,1-13.623-19.8V24.712A32.638,32.638,0,0,0,46.895,21.1a32.642,32.642,0,0,0,13.622,3.607Z" transform="translate(1383.427 1220.563)"/><path class="a" d="M41.6,32.4l-5.011,5.011,7.281,7.281L57.96,30.6l-5.011-5.011-9.082,9.082ZM54.75,30.6l-1.8-1.8Z" transform="translate(1384.183 1221.519)"/><path class="a" d="M71.385,20.3H65.9a25.706,25.706,0,0,1-14.329-4.355l-.666-.387-.626.417a25.661,25.661,0,0,1-8.413,3.643V17.13l-2.991-.7a18.044,18.044,0,0,0-1.568-3.783l1.619-2.614L32.84,3.94,30.226,5.559a18.045,18.045,0,0,0-3.783-1.568L25.739,1H17.13l-.7,2.991a18.045,18.045,0,0,0-3.783,1.568L10.029,3.94,3.94,10.029l1.619,2.614a18.045,18.045,0,0,0-1.568,3.783L1,17.13v8.61l2.991.7a18.045,18.045,0,0,0,1.568,3.783L3.94,32.84l6.088,6.088,2.614-1.619a18.045,18.045,0,0,0,3.783,1.568l.7,2.991h8.61l.7-2.991a18.045,18.045,0,0,0,3.783-1.568l.523.324a28.092,28.092,0,0,0,5.387,13.373l-3.819,14,5.606-1.4,4.242,7.071,3.806-11.419a27.637,27.637,0,0,0,4.659,1.861l.32.1.32-.094a27.638,27.638,0,0,0,4.659-1.861L59.736,70.68l4.242-7.071,5.606,1.4-3.819-14A28,28,0,0,0,71.385,34.24ZM30.251,34.655l-.594.361a15.756,15.756,0,0,1-4.431,1.836l-.677.166-.608,2.58H18.928l-.607-2.58-.677-.166a15.756,15.756,0,0,1-4.431-1.836l-.594-.361-2.255,1.4L6.819,32.505l1.4-2.255-.361-.594a15.756,15.756,0,0,1-1.836-4.431l-.166-.677L3.27,23.941V18.928l2.58-.607.166-.677a15.756,15.756,0,0,1,1.836-4.431l.361-.594-1.4-2.256,3.545-3.545,2.255,1.4.594-.361a15.756,15.756,0,0,1,4.431-1.836l.677-.166.608-2.58h5.013l.607,2.58.677.166a15.756,15.756,0,0,1,4.431,1.836l.594.361,2.255-1.4,3.545,3.545-1.4,2.255.361.594a15.756,15.756,0,0,1,1.836,4.431l.166.677,2.582.608v1.115A26,26,0,0,1,36,20.3H35a13.63,13.63,0,1,0-4.483,11.275v2.667c0,.2.02.4.025.595ZM41.572,65.279,39,61l-3.476.868,2.383-8.739a28.128,28.128,0,0,0,6.044,5.005Zm24.8-3.413L62.9,61l-2.569,4.281-2.382-7.146a28.129,28.129,0,0,0,6.044-5.005Zm2.74-27.626A25.9,25.9,0,0,1,50.951,58.847,25.9,25.9,0,0,1,32.787,34.24V22.57H36A27.942,27.942,0,0,0,50.95,18.247,27.916,27.916,0,0,0,65.9,22.57h3.212Z" transform="translate(1379.37 1218.193)"/></g></svg>