<svg xmlns="http://www.w3.org/2000/svg" xmlns:xlink="http://www.w3.org/1999/xlink" width="249" height="74" viewBox="0 0 249 74">
  <defs>
    <linearGradient id="linear-gradient" x1="0.915" y1="6.617" x2="-0.384" y2="5.947" gradientUnits="objectBoundingBox">
      <stop offset="0" stop-color="#00a0ff"/>
      <stop offset="0.007" stop-color="#00a1ff"/>
      <stop offset="0.26" stop-color="#00beff"/>
      <stop offset="0.512" stop-color="#00d2ff"/>
      <stop offset="0.76" stop-color="#00dfff"/>
      <stop offset="1" stop-color="#00e3ff"/>
    </linearGradient>
    <linearGradient id="linear-gradient-2" x1="1.076" y1="17.089" x2="-1.305" y2="17.089" gradientUnits="objectBoundingBox">
      <stop offset="0" stop-color="#ffe000"/>
      <stop offset="0.409" stop-color="#ffbd00"/>
      <stop offset="0.775" stop-color="orange"/>
      <stop offset="1" stop-color="#ff9c00"/>
    </linearGradient>
    <linearGradient id="linear-gradient-3" x1="0.863" y1="10.864" x2="-0.502" y2="9.095" gradientUnits="objectBoundingBox">
      <stop offset="0" stop-color="#ff3a44"/>
      <stop offset="1" stop-color="#c31162"/>
    </linearGradient>
    <linearGradient id="linear-gradient-4" x1="-0.188" y1="13.585" x2="0.421" y2="12.794" gradientUnits="objectBoundingBox">
      <stop offset="0" stop-color="#32a071"/>
      <stop offset="0.068" stop-color="#2da771"/>
      <stop offset="0.476" stop-color="#15cf74"/>
      <stop offset="0.801" stop-color="#06e775"/>
      <stop offset="1" stop-color="#00f076"/>
    </linearGradient>
  </defs>
  <g id="google-play-badge-01" transform="translate(-10 -9.778)">
    <g id="Group_6" data-name="Group 6" transform="translate(10 9.778)">
      <path id="Path_25" data-name="Path 25" d="M249.778,84H19.222A9.263,9.263,0,0,1,10,74.75V19.25A9.263,9.263,0,0,1,19.222,10H249.778A9.263,9.263,0,0,1,259,19.25v55.5A9.263,9.263,0,0,1,249.778,84Z" transform="translate(-10 -10)"/>
    </g>
    <g id="Group_8" data-name="Group 8" transform="translate(10 9.778)">
      <g id="Group_7" data-name="Group 7">
        <path id="Path_26" data-name="Path 26" d="M249.778,11.48a7.757,7.757,0,0,1,7.747,7.77v55.5a7.757,7.757,0,0,1-7.747,7.77H19.222a7.757,7.757,0,0,1-7.747-7.77V19.25a7.757,7.757,0,0,1,7.747-7.77H249.778m0-1.48H19.222A9.263,9.263,0,0,0,10,19.25v55.5A9.263,9.263,0,0,0,19.222,84H249.778A9.263,9.263,0,0,0,259,74.75V19.25A9.263,9.263,0,0,0,249.778,10Z" transform="translate(-10 -10)" fill="#a6a6a6"/>
      </g>
    </g>
    <g id="Group_9" data-name="Group 9" transform="translate(86.268 23.671)">
      <path id="Path_27" data-name="Path 27" d="M62.546,23.086a4.938,4.938,0,0,1-1.383,3.689A5.363,5.363,0,0,1,57.1,28.416a5.7,5.7,0,0,1-5.755-5.773,5.521,5.521,0,0,1,1.678-4.113,5.827,5.827,0,0,1,6.345-1.2,4.693,4.693,0,0,1,1.734,1.236l-.978.978a3.753,3.753,0,0,0-3.025-1.31,4.179,4.179,0,0,0-3.025,1.236,4.223,4.223,0,0,0-1.273,3.191,4.357,4.357,0,0,0,7.4,3.191,3.451,3.451,0,0,0,.922-2.25H57.1V22.274h5.367A6.315,6.315,0,0,1,62.546,23.086Z" transform="translate(-51.35 -16.87)" fill="#fff" stroke="#fff" stroke-miterlimit="10" stroke-width="0.2"/>
      <path id="Path_28" data-name="Path 28" d="M64.986,18.365H59.95v3.5h4.537V23.2H59.95v3.5h5.035v1.365H58.53V17h6.456Z" transform="translate(-45.287 -16.76)" fill="#fff" stroke="#fff" stroke-miterlimit="10" stroke-width="0.2"/>
      <path id="Path_29" data-name="Path 29" d="M67.349,28.067h-1.42v-9.7h-3.1V17h7.6v1.365h-3.1v9.7Z" transform="translate(-41.656 -16.76)" fill="#fff" stroke="#fff" stroke-miterlimit="10" stroke-width="0.2"/>
      <path id="Path_30" data-name="Path 30" d="M69.94,28.067V17h1.42V28.067Z" transform="translate(-35.652 -16.76)" fill="#fff" stroke="#fff" stroke-miterlimit="10" stroke-width="0.2"/>
      <path id="Path_31" data-name="Path 31" d="M76.2,28.067h-1.42v-9.7h-3.1V17h7.6v1.365h-3.1v9.7Z" transform="translate(-34.182 -16.76)" fill="#fff" stroke="#fff" stroke-miterlimit="10" stroke-width="0.2"/>
      <path id="Path_32" data-name="Path 32" d="M88.069,26.738a5.744,5.744,0,0,1-8.116,0,5.664,5.664,0,0,1-1.623-4.095,5.635,5.635,0,0,1,1.623-4.095,5.4,5.4,0,0,1,4.058-1.678,5.456,5.456,0,0,1,4.058,1.678,5.928,5.928,0,0,1,0,8.189ZM81,25.816a4.275,4.275,0,0,0,6.013,0,4.353,4.353,0,0,0,1.236-3.172,4.281,4.281,0,0,0-1.236-3.172,4.275,4.275,0,0,0-6.013,0,4.353,4.353,0,0,0-1.236,3.172A4.353,4.353,0,0,0,81,25.816Z" transform="translate(-28.567 -16.87)" fill="#fff" stroke="#fff" stroke-miterlimit="10" stroke-width="0.2"/>
      <path id="Path_33" data-name="Path 33" d="M85.58,28.067V17h1.734L92.7,25.614h.055l-.055-2.14V17h1.42V28.067H92.644l-5.626-9.019h-.055l.055,2.14v6.88Z" transform="translate(-22.445 -16.76)" fill="#fff" stroke="#fff" stroke-miterlimit="10" stroke-width="0.2"/>
    </g>
    <path id="Path_34" data-name="Path 34" d="M101.024,35.719a7.839,7.839,0,1,0,7.876,7.839A7.737,7.737,0,0,0,101.024,35.719Zm0,12.6A4.534,4.534,0,0,1,96.6,43.558a4.438,4.438,0,1,1,8.853,0A4.545,4.545,0,0,1,101.024,48.316Zm-17.19-12.6a7.839,7.839,0,1,0,7.876,7.839A7.737,7.737,0,0,0,83.834,35.719Zm0,12.6a4.534,4.534,0,0,1-4.427-4.759,4.438,4.438,0,1,1,8.853,0A4.534,4.534,0,0,1,83.834,48.316ZM63.4,38.135v3.32h7.968a7,7,0,0,1-1.808,4.187,8.136,8.136,0,0,1-6.142,2.435,8.854,8.854,0,0,1,0-17.707,8.431,8.431,0,0,1,5.994,2.379l2.342-2.342A11.612,11.612,0,0,0,63.4,27.05a12.193,12.193,0,1,0,0,24.384,11.121,11.121,0,0,0,8.5-3.412,11.008,11.008,0,0,0,2.877-7.784,10.063,10.063,0,0,0-.184-2.084H63.4Zm83.572,2.582c-.646-1.752-2.638-5-6.714-5-4.039,0-7.4,3.172-7.4,7.839a7.671,7.671,0,0,0,7.784,7.839,7.773,7.773,0,0,0,6.529-3.468L144.5,46.14a4.462,4.462,0,0,1-3.855,2.176,3.99,3.99,0,0,1-3.8-2.379L147.338,41.6Zm-10.7,2.619a4.3,4.3,0,0,1,4.095-4.574,3.047,3.047,0,0,1,2.914,1.66Zm-8.521,7.6H131.2V27.88H127.75Zm-5.644-13.464h-.129a5.423,5.423,0,0,0-4.132-1.752,7.855,7.855,0,0,0,0,15.7,5.344,5.344,0,0,0,4.132-1.789h.111v1.125c0,3.006-1.6,4.611-4.187,4.611a4.342,4.342,0,0,1-3.947-2.785l-3.006,1.254a7.476,7.476,0,0,0,6.954,4.63c4.039,0,7.452-2.379,7.452-8.171V36.2h-3.265v1.273Zm-3.966,10.845a4.5,4.5,0,0,1-4.371-4.722,4.53,4.53,0,0,1,4.371-4.777c2.342,0,4.187,2.029,4.187,4.777C122.346,46.324,120.5,48.316,118.141,48.316ZM163.127,27.88h-8.245V50.936h3.449V42.193h4.814a7.168,7.168,0,1,0-.018-14.313Zm.074,11.1h-4.888V31.071H163.2a3.957,3.957,0,1,1,0,7.913Zm21.285-3.3a6.488,6.488,0,0,0-6.142,3.523l3.062,1.273a3.254,3.254,0,0,1,3.136-1.7c1.771,0,3.6,1.07,3.615,2.97v.24a7.7,7.7,0,0,0-3.6-.885c-3.3,0-6.64,1.808-6.64,5.183,0,3.08,2.693,5.072,5.718,5.072a4.85,4.85,0,0,0,4.39-2.25h.111V50.9h3.32V42.064C191.476,37.969,188.414,35.682,184.486,35.682Zm-.424,12.634c-1.125,0-2.693-.572-2.693-1.955,0-1.771,1.955-2.453,3.652-2.453a6.074,6.074,0,0,1,3.136.775A4.162,4.162,0,0,1,184.061,48.316ZM203.576,36.18l-3.947,10h-.111l-4.095-10h-3.707l6.142,13.981-3.5,7.765h3.6l9.462-21.746ZM172.589,50.936h3.449V27.88h-3.449Z" transform="translate(34.656 15.398)" fill="#fff"/>
    <g id="Group_11" data-name="Group 11" transform="translate(28.389 24.171)">
      <path id="Path_35" data-name="Path 35" d="M20.828,17.6a3.711,3.711,0,0,0-.848,2.582v40.8a3.647,3.647,0,0,0,.848,2.582l.129.129L43.81,40.858V40.3L20.958,17.47Z" transform="translate(-19.962 -16.863)" fill="url(#linear-gradient)"/>
      <path id="Path_36" data-name="Path 36" d="M40.518,41.508,32.9,33.891v-.553l7.618-7.618.166.092L49.7,30.94c2.582,1.457,2.582,3.855,0,5.33L40.684,41.4Z" transform="translate(-9.051 -9.897)" fill="url(#linear-gradient-2)"/>
      <path id="Path_37" data-name="Path 37" d="M51.205,37.784,43.422,30,20.44,52.982c.848.9,2.25,1.014,3.836.111L51.205,37.784" transform="translate(-19.573 -6.283)" fill="url(#linear-gradient-3)"/>
      <path id="Path_38" data-name="Path 38" d="M51.214,33.075,24.266,17.766c-1.586-.9-2.988-.793-3.836.111l23,22.982Z" transform="translate(-19.582 -17.141)" fill="url(#linear-gradient-4)"/>
      <g id="Group_10" data-name="Group 10" transform="translate(0.018 31.335)">
        <path id="Path_39" data-name="Path 39" d="M51.039,34.13,24.258,49.347c-1.494.848-2.84.793-3.689.018h0l-.129.129h0l.129.129h0c.867.775,2.195.83,3.689-.018L51.205,34.3Z" transform="translate(-19.592 -34.13)" opacity="0.2"/>
        <path id="Path_40" data-name="Path 40" d="M20.828,43.5a3.711,3.711,0,0,1-.848-2.582V41.2a3.647,3.647,0,0,0,.848,2.582l.129-.129Z" transform="translate(-19.98 -28.396)" opacity="0.12"/>
      </g>
      <path id="Path_41" data-name="Path 41" d="M46.224,32.4l-9.2,5.22.166.166,9.019-5.128A3.242,3.242,0,0,0,48.142,30h0A3.355,3.355,0,0,1,46.224,32.4Z" transform="translate(-5.572 -6.283)" opacity="0.12"/>
      <path id="Path_42" data-name="Path 42" d="M24.655,18.02,60.622,38.457a3.447,3.447,0,0,1,1.937,2.4h0A3.219,3.219,0,0,0,60.622,38.2L24.655,17.762c-2.582-1.457-4.685-.24-4.685,2.711v.277C19.97,17.78,22.091,16.563,24.655,18.02Z" transform="translate(-19.97 -17.137)" fill="#fff" opacity="0.25"/>
    </g>
  </g>
</svg>
