<svg xmlns="http://www.w3.org/2000/svg" width="262.753" height="263.572" viewBox="0 0 262.753 263.572">
  <g id="ba" transform="translate(-4899.514 -4899)">
    <path id="Path_1122" data-name="Path 1122" d="M451.965,216.664A23.063,23.063,0,1,0,428.9,193.6C428.49,206.369,439.2,216.664,451.965,216.664Z" transform="translate(4640.292 4807.12)" fill="#0096f2"/>
    <path id="Path_1123" data-name="Path 1123" d="M473.821,353.937V297.93c0-13.59-11.531-24.71-25.122-24.71H412.458a24.874,24.874,0,0,0-25.122,24.71v56.007a4.127,4.127,0,0,0,4.118,4.118H403.4v45.714a4.127,4.127,0,0,0,4.118,4.118H453.64a4.429,4.429,0,0,0,4.118-4.118l0-45.714H469.7a4.429,4.429,0,0,0,4.118-4.118Z" transform="translate(4661.677 4754.276)" fill="#0096f2"/>
    <path id="Path_1124" data-name="Path 1124" d="M324.368,71.079H294.716L227.172,31.132a20.7,20.7,0,0,0,.823-4.943,17.3,17.3,0,1,0-34.592-.411,20.7,20.7,0,0,0,.823,4.943L126.686,70.67l-29.651,0A17.577,17.577,0,0,0,79.327,88.376V227.988a18.04,18.04,0,0,0,17.3,17.708h15.238a45.473,45.473,0,0,1-2.47-15.238,49.42,49.42,0,0,1,98.841,0,47.258,47.258,0,0,1-2.47,15.238h30.888V229.635h-3.707a12.39,12.39,0,0,1-12.354-12.354v-55.6a32.713,32.713,0,0,1,26.769-32.124,31.3,31.3,0,1,1,49.42,0,33.044,33.044,0,0,1,26.769,32.124v56.007a12.133,12.133,0,0,1-12.354,12.354h-3.707V246.1h16.886A17.577,17.577,0,0,0,342.08,228.4l0-139.612A17.577,17.577,0,0,0,324.37,71.075ZM210.7,16.717a9.061,9.061,0,1,1-9.061,9.061A9.141,9.141,0,0,1,210.7,16.717ZM157.167,120.087a3.981,3.981,0,0,1-5.766,0l-6.588-6.588v39.948a4.127,4.127,0,0,1-4.118,4.118,3.891,3.891,0,0,1-4.118-4.118V113.5l-7,6.588a4.077,4.077,0,0,1-5.766-5.766l13.59-13.59a3.981,3.981,0,0,1,5.766,0l13.59,13.59a3.687,3.687,0,0,1,.411,5.766Zm46.537,1.646a3.981,3.981,0,0,1-5.766,0l-7-6.588v38.3a3.891,3.891,0,0,1-4.118,4.118,4.127,4.127,0,0,1-4.118-4.118v-38.3l-6.588,6.588a4.077,4.077,0,0,1-5.766-5.766l14-13.59a3.981,3.981,0,0,1,5.766,0l13.59,13.59c1.236,1.236,1.236,4.12,0,5.766ZM142.756,71.079l55.6-32.946a17.118,17.118,0,0,0,12.354,5.354,16.43,16.43,0,0,0,12.354-5.354L278.25,71.079Z" transform="translate(4820.188 4890.519)" fill="#0096f2"/>
    <path id="Path_1125" data-name="Path 1125" d="M194.461,382.67c-20.592,2.059-37.064,19.768-37.064,40.771a41.075,41.075,0,0,0,14.413,31.3l22.238-35.005,0-37.064Z" transform="translate(4780.01 4697.95)" fill="#0096f2"/>
    <path id="Path_1126" data-name="Path 1126" d="M250.73,382.67v34.183h36.242A41.1,41.1,0,0,0,250.73,382.67Z" transform="translate(4731.979 4697.95)" fill="#0096f2"/>
    <path id="Path_1127" data-name="Path 1127" d="M201.52,505.089a39.123,39.123,0,0,0,19.768,4.943,40.541,40.541,0,0,0,40.771-39.123H223.347Z" transform="translate(4757.303 4652.54)" fill="#0096f2"/>
  </g>
</svg>
