<?xml version="1.0" encoding="utf-8"?>
<!-- Generator: Adobe Illustrator 24.2.3, SVG Export Plug-In . SVG Version: 6.00 Build 0)  -->
<svg version="1.1" id="Layer_1" xmlns="http://www.w3.org/2000/svg" xmlns:xlink="http://www.w3.org/1999/xlink" x="0px" y="0px"
	 viewBox="0 0 435.01 346.29" style="enable-background:new 0 0 435.01 346.29;" xml:space="preserve">
<style type="text/css">
	.st0{fill:#6F6E75;}
	.st1{fill:#0096F2;}
	.st2{fill:#FFFFFF;}
</style>
<g>
	<g id="Group_235_5_" transform="translate(-8)">
		<path id="Path_846_5_" class="st1" d="M231.85,125.24l-92.38-56.53l92.38-56.57v34.85l-38.1,21.68l38.1,21.67L231.85,125.24z"/>
		<path id="Path_847_5_" class="st1" d="M252.4,67.59l92.37,57.02l-92.37,56.81v-35.02l38.09-21.82l-38.09-22V67.59z"/>
		<path id="Path_848_5_" class="st0" d="M139.47,125.98l92.38,56.56v-34.85l-92.38-56.56V125.98z"/>
	</g>
	<g>
		<path class="st0" d="M37.03,266.5v9.1H8.26v-42.54h27.88v9.1H19.07v7.56h14.59v8.63H19.07v8.15H37.03z"/>
		<path class="st0" d="M81.46,266.5v9.1H55.29v-42.54H66.1v33.44H81.46z"/>
		<path class="st0" d="M109.76,233.06v42.54H98.94v-42.54H109.76z"/>
		<path class="st0" d="M160.39,233.06v9.1h-11.34v33.44h-10.87v-33.44h-11.34v-9.1H160.39z"/>
		<path class="st0" d="M206.29,266.5v9.1h-28.77v-42.54h27.88v9.1h-17.07v7.56h14.59v8.63h-14.59v8.15H206.29z"/>
		<path class="st0" d="M240.14,276.18l-20.03-43.13h12.11l5.26,12.76c1.3,2.99,2.38,5.85,3.25,8.57c0.12-0.12,0.32-0.53,0.62-1.24
			c0.3-0.71,0.63-1.51,1-2.39c0.38-0.89,0.64-1.51,0.8-1.86l2.07-4.55l5.2-11.17h0.47l2.54,5.49l2.84,5.97
			c0.75,1.42,1.52,3.11,2.3,5.08c0.75,1.62,1.4,3.17,1.95,4.67c0.35-0.75,3.23-7.86,8.63-21.33h12.11l-20.09,43.13h-0.53
			l-7.98-16.95l-2.01-4.37l-2.01,4.37l-7.98,16.95H240.14z"/>
		<path class="st0" d="M297.5,275.59h-11.28l21.15-43.13h0.53l21.15,43.13h-11.28l-3.01-6.5h-14.3L297.5,275.59z M303.59,261.83
			h8.09c-1.93-4.37-3.27-7.76-4.02-10.16l-1.77,4.43C304.87,258.74,304.1,260.65,303.59,261.83z"/>
		<path class="st0" d="M345.12,275.59v-42.54h15.48c5.28,0,9.46,1.27,12.55,3.81c3.09,2.54,4.64,6.09,4.64,10.66
			c0,2.91-0.68,5.43-2.04,7.53c-1.36,2.11-3.28,3.69-5.76,4.76l8.57,15.77h-11.28l-6.85-14h-4.73v14H345.12z M361.07,242.15h-5.38
			v10.81h5.44c1.81,0,3.22-0.45,4.22-1.36c1-0.91,1.51-2.27,1.51-4.08c0-1.73-0.52-3.06-1.57-3.99
			C364.25,242.62,362.84,242.15,361.07,242.15z"/>
		<path class="st0" d="M425.34,266.5v9.1h-28.77v-42.54h27.88v9.1h-17.07v7.56h14.59v8.63h-14.59v8.15H425.34z"/>
	</g>
	<g>
		<path class="st0" d="M19.02,338.07c-3.36,0-6.53-0.62-9.5-1.85v-5.54c2.88,1.47,5.76,2.25,8.64,2.34c1.26,0,2.34-0.12,3.24-0.36
			c2.46-0.57,3.69-1.73,3.69-3.47c0-1.26-0.5-2.3-1.49-3.13c-0.99-0.82-2.76-1.69-5.31-2.59c-3.21-1.14-5.53-2.46-6.95-3.96
			c-1.43-1.5-2.14-3.48-2.14-5.94c0-2.79,1.05-5,3.15-6.62c2.1-1.65,4.82-2.48,8.15-2.48c2.94,0,5.7,0.54,8.28,1.62v5.31
			c-2.28-1.29-4.91-1.94-7.88-1.94c-1.89,0-3.39,0.36-4.5,1.08c-1.11,0.72-1.67,1.7-1.67,2.93c0,1.17,0.5,2.18,1.48,3.02
			c0.99,0.84,2.72,1.71,5.18,2.61c3.24,1.2,5.58,2.54,7.02,4.03c1.44,1.49,2.16,3.43,2.16,5.83c0,2.85-1.02,5.08-3.06,6.68
			C25.49,337.27,22.65,338.07,19.02,338.07z"/>
		<path class="st0" d="M54.98,321.28c0-4.65,1.61-8.61,4.82-11.88c3.18-3.27,7.17-4.91,11.97-4.91c4.77,0,8.75,1.62,11.93,4.86
			c3.24,3.21,4.86,7.19,4.86,11.93c0,4.71-1.61,8.7-4.82,11.97c-3.21,3.21-7.2,4.82-11.97,4.82c-4.77,0-8.76-1.6-11.97-4.82
			C56.59,329.98,54.98,325.99,54.98,321.28z M60.66,321.28c0,3.33,1.05,6.09,3.15,8.28c2.1,2.19,4.76,3.29,7.97,3.29
			c3.21,0,5.85-1.09,7.92-3.29c2.1-2.19,3.15-4.95,3.15-8.28c0-3.3-1.05-6.05-3.15-8.24c-2.07-2.22-4.71-3.33-7.92-3.33
			c-3.18,0-5.84,1.11-7.97,3.33C61.71,315.23,60.66,317.98,60.66,321.28z"/>
		<path class="st0" d="M133.84,332.71v4.77h-18.86v-32.41h5.67v27.64H133.84z"/>
		<path class="st0" d="M179.35,305.08h5.67v20.84c0,3.72-1.16,6.69-3.47,8.91c-2.28,2.16-5.48,3.24-9.59,3.24
			c-4.05,0-7.23-1.08-9.54-3.24c-2.31-2.22-3.47-5.19-3.47-8.91v-20.84h5.63v20.35c0,2.34,0.65,4.16,1.96,5.47
			c1.31,1.31,3.11,1.96,5.42,1.96c2.34,0,4.16-0.65,5.45-1.96c1.29-1.3,1.94-3.13,1.94-5.47V305.08z"/>
		<path class="st0" d="M234.31,305.08v4.77h-9.45v27.64h-5.67v-27.64h-9.45v-4.77H234.31z"/>
		<path class="st0" d="M265.23,305.08v32.41h-5.67v-32.41H265.23z"/>
		<path class="st0" d="M291.65,321.28c0-4.65,1.6-8.61,4.82-11.88c3.18-3.27,7.17-4.91,11.97-4.91c4.77,0,8.75,1.62,11.93,4.86
			c3.24,3.21,4.86,7.19,4.86,11.93c0,4.71-1.61,8.7-4.82,11.97c-3.21,3.21-7.2,4.82-11.97,4.82c-4.77,0-8.76-1.6-11.97-4.82
			C293.26,329.98,291.65,325.99,291.65,321.28z M297.32,321.28c0,3.33,1.05,6.09,3.15,8.28c2.1,2.19,4.76,3.29,7.97,3.29
			c3.21,0,5.85-1.09,7.92-3.29c2.1-2.19,3.15-4.95,3.15-8.28c0-3.3-1.05-6.05-3.15-8.24c-2.07-2.22-4.71-3.33-7.92-3.33
			c-3.18,0-5.84,1.11-7.97,3.33C298.37,315.23,297.32,317.98,297.32,321.28z"/>
		<path class="st0" d="M377.89,305.08v32.9h-0.14l-18.95-19.4l-1.58-1.44v20.35h-5.58v-32.9h0.18l18.91,19.35l1.58,1.53v-20.39
			H377.89z"/>
		<path class="st0" d="M414.17,338.07c-3.36,0-6.53-0.62-9.5-1.85v-5.54c2.88,1.47,5.76,2.25,8.64,2.34c1.26,0,2.34-0.12,3.24-0.36
			c2.46-0.57,3.69-1.73,3.69-3.47c0-1.26-0.5-2.3-1.49-3.13c-0.99-0.82-2.76-1.69-5.31-2.59c-3.21-1.14-5.53-2.46-6.95-3.96
			c-1.43-1.5-2.14-3.48-2.14-5.94c0-2.79,1.05-5,3.15-6.62c2.1-1.65,4.82-2.48,8.15-2.48c2.94,0,5.7,0.54,8.28,1.62v5.31
			c-2.28-1.29-4.91-1.94-7.88-1.94c-1.89,0-3.39,0.36-4.5,1.08c-1.11,0.72-1.66,1.7-1.66,2.93c0,1.17,0.49,2.18,1.48,3.02
			c0.99,0.84,2.72,1.71,5.18,2.61c3.24,1.2,5.58,2.54,7.02,4.03c1.44,1.49,2.16,3.43,2.16,5.83c0,2.85-1.02,5.08-3.06,6.68
			C420.64,337.27,417.8,338.07,414.17,338.07z"/>
	</g>
</g>
</svg>
