<?xml version="1.0" encoding="utf-8"?>
<!-- Generator: Adobe Illustrator 24.2.3, SVG Export Plug-In . SVG Version: 6.00 Build 0)  -->
<svg version="1.1" id="Layer_1" xmlns="http://www.w3.org/2000/svg" xmlns:xlink="http://www.w3.org/1999/xlink" x="0px" y="0px"
	 viewBox="0 0 706.29 145.74" style="enable-background:new 0 0 706.29 145.74;" xml:space="preserve">
<style type="text/css">
	.st0{fill:#6F6E75;}
	.st1{fill:#0096F2;}
	.st2{fill:#FFFFFF;}
</style>
<g>
	<g id="Group_235_4_" transform="translate(-8)">
		<path id="Path_846_4_" class="st1" d="M90.85,96.05L25.18,55.86l65.68-40.22v24.78L63.77,55.83l27.08,15.41L90.85,96.05z"/>
		<path id="Path_847_4_" class="st1" d="M105.46,55.07l65.67,40.54l-65.67,40.39v-24.9l27.08-15.51l-27.08-15.64V55.07z"/>
		<path id="Path_848_4_" class="st0" d="M25.18,96.58l65.68,40.21v-24.78L25.18,71.8V96.58z"/>
	</g>
	<g>
		<path class="st0" d="M212.33,89.06v6.47h-20.45V65.29h19.82v6.47h-12.14v5.38h10.37v6.13h-10.37v5.8H212.33z"/>
		<path class="st0" d="M236.77,89.06v6.47h-18.61V65.29h7.69v23.77H236.77z"/>
		<path class="st0" d="M249.75,65.29v30.24h-7.69V65.29H249.75z"/>
		<path class="st0" d="M278.6,65.29v6.47h-8.06v23.77h-7.73V71.76h-8.06v-6.47H278.6z"/>
		<path class="st0" d="M304.09,89.06v6.47h-20.45V65.29h19.82v6.47h-12.14v5.38h10.37v6.13h-10.37v5.8H304.09z"/>
		<path class="st0" d="M321.02,95.95l-14.24-30.66h8.61l3.74,9.07c0.92,2.13,1.69,4.16,2.31,6.09c0.08-0.08,0.23-0.38,0.44-0.88
			s0.45-1.07,0.71-1.7c0.27-0.63,0.46-1.07,0.57-1.32l1.47-3.23l3.7-7.94h0.34l1.81,3.91l2.02,4.24c0.53,1.01,1.08,2.21,1.64,3.61
			c0.53,1.15,0.99,2.25,1.39,3.32c0.25-0.53,2.3-5.59,6.13-15.16h8.61l-14.28,30.66h-0.38l-5.67-12.05l-1.43-3.11l-1.43,3.11
			l-5.67,12.05H321.02z"/>
		<path class="st0" d="M354.66,95.53h-8.02l15.04-30.66h0.38l15.04,30.66h-8.02l-2.14-4.62h-10.16L354.66,95.53z M358.99,85.74h5.75
			c-1.37-3.11-2.32-5.52-2.86-7.22l-1.26,3.15C359.9,83.54,359.35,84.9,358.99,85.74z"/>
		<path class="st0" d="M381.37,95.53V65.29h11c3.75,0,6.73,0.9,8.92,2.71c2.2,1.81,3.3,4.33,3.3,7.58c0,2.07-0.48,3.86-1.45,5.36
			s-2.33,2.63-4.09,3.38l6.09,11.21h-8.02l-4.87-9.95h-3.36v9.95H381.37z M392.71,71.76h-3.82v7.69h3.86c1.29,0,2.29-0.32,3-0.97
			c0.71-0.64,1.07-1.61,1.07-2.9c0-1.23-0.37-2.18-1.11-2.83C394.98,72.09,393.97,71.76,392.71,71.76z"/>
		<path class="st0" d="M431.27,89.06v6.47h-20.45V65.29h19.82v6.47H418.5v5.38h10.37v6.13H418.5v5.8H431.27z"/>
		<path class="st0" d="M453.53,96.03c-3.11,0-5.96-0.6-8.57-1.81v-3.19c2.88,1.4,5.68,2.1,8.4,2.1c2.07,0,3.75-0.43,5.04-1.3
			c1.29-0.87,1.93-2.04,1.93-3.53c0-1.51-0.5-2.76-1.51-3.74c-0.98-0.98-2.8-1.93-5.46-2.86c-3.02-1.06-5.19-2.29-6.51-3.7
			c-1.32-1.4-1.97-3.19-1.97-5.38c0-2.44,0.91-4.35,2.73-5.75c1.88-1.4,4.2-2.1,6.97-2.1c2.63,0,5.08,0.52,7.35,1.55v3.11
			c-2.33-1.18-4.73-1.76-7.22-1.76c-1.96,0-3.56,0.45-4.81,1.34c-1.25,0.9-1.87,2.06-1.87,3.49c0,1.46,0.51,2.69,1.53,3.7
			c1.02,1.01,2.81,1.97,5.35,2.9c3.08,1.09,5.28,2.32,6.59,3.7c1.32,1.37,1.97,3.14,1.97,5.29c0,2.46-0.91,4.41-2.73,5.84
			C458.93,95.33,456.52,96.03,453.53,96.03z"/>
		<path class="st0" d="M469.49,80.41c0-4.34,1.47-8.02,4.41-11.05c2.97-3.05,6.62-4.58,10.96-4.58s7.98,1.51,10.92,4.54
			c2.97,3,4.45,6.69,4.45,11.09c0,4.4-1.47,8.11-4.41,11.13c-2.94,3-6.59,4.49-10.96,4.49s-8.02-1.5-10.96-4.49
			C470.96,88.51,469.49,84.8,469.49,80.41z M476.17,71.38c-2.3,2.38-3.44,5.39-3.44,9.03c0,3.64,1.15,6.65,3.44,9.03
			c2.32,2.41,5.22,3.61,8.69,3.61c3.5,0,6.38-1.2,8.65-3.61c2.3-2.38,3.44-5.39,3.44-9.03c0-3.64-1.15-6.65-3.44-9.03
			c-2.27-2.41-5.15-3.61-8.65-3.61C481.39,67.77,478.49,68.97,476.17,71.38z"/>
		<path class="st0" d="M524.59,92.84v2.69h-16.51V65.29h3.19v27.55H524.59z"/>
		<path class="st0" d="M550.08,65.29h3.19v19.82c0,3.42-1,6.09-3,8.02c-2,1.93-4.78,2.9-8.34,2.9c-3.53,0-6.29-0.97-8.29-2.9
			c-2-1.93-3-4.61-3-8.02V65.29h3.19v19.66c0,2.55,0.71,4.54,2.14,5.96c1.43,1.43,3.42,2.14,5.96,2.14c2.55,0,4.54-0.71,5.98-2.14
			s2.16-3.42,2.16-5.96V65.29z"/>
		<path class="st0" d="M580.87,65.29v2.69h-9.32v27.55h-3.19V67.98h-9.28v-2.69H580.87z"/>
		<path class="st0" d="M590.57,65.29v30.24h-3.19V65.29H590.57z"/>
		<path class="st0" d="M598.42,80.41c0-4.34,1.47-8.02,4.41-11.05c2.97-3.05,6.62-4.58,10.96-4.58s7.98,1.51,10.92,4.54
			c2.97,3,4.45,6.69,4.45,11.09c0,4.4-1.47,8.11-4.41,11.13c-2.94,3-6.59,4.49-10.96,4.49s-8.02-1.5-10.96-4.49
			C599.89,88.51,598.42,84.8,598.42,80.41z M605.1,71.38c-2.3,2.38-3.44,5.39-3.44,9.03c0,3.64,1.15,6.65,3.44,9.03
			c2.32,2.41,5.22,3.61,8.69,3.61c3.5,0,6.38-1.2,8.65-3.61c2.3-2.38,3.44-5.39,3.44-9.03c0-3.64-1.15-6.65-3.44-9.03
			c-2.27-2.41-5.15-3.61-8.65-3.61C610.32,67.77,607.43,68.97,605.1,71.38z"/>
		<path class="st0" d="M660.37,96.03h-0.04l-19.28-22.22c-0.48-0.53-0.77-0.88-0.88-1.05c0,0.17,0.01,0.6,0.02,1.3
			c0.01,0.7,0.02,1.16,0.02,1.39v20.08h-3.19V64.78h0.04L656.34,87l0.88,1.05c0-0.17-0.01-0.6-0.02-1.3
			c-0.01-0.7-0.02-1.16-0.02-1.39V65.29h3.19V96.03z"/>
		<path class="st0" d="M676.71,96.03c-3.11,0-5.96-0.6-8.57-1.81v-3.19c2.88,1.4,5.68,2.1,8.4,2.1c2.07,0,3.75-0.43,5.04-1.3
			c1.29-0.87,1.93-2.04,1.93-3.53c0-1.51-0.5-2.76-1.51-3.74c-0.98-0.98-2.8-1.93-5.46-2.86c-3.02-1.06-5.19-2.29-6.51-3.7
			c-1.32-1.4-1.97-3.19-1.97-5.38c0-2.44,0.91-4.35,2.73-5.75c1.88-1.4,4.2-2.1,6.97-2.1c2.63,0,5.08,0.52,7.35,1.55v3.11
			c-2.33-1.18-4.73-1.76-7.22-1.76c-1.96,0-3.56,0.45-4.81,1.34c-1.25,0.9-1.87,2.06-1.87,3.49c0,1.46,0.51,2.69,1.53,3.7
			c1.02,1.01,2.81,1.97,5.35,2.9c3.08,1.09,5.28,2.32,6.59,3.7c1.32,1.37,1.97,3.14,1.97,5.29c0,2.46-0.91,4.41-2.73,5.84
			C682.11,95.33,679.71,96.03,676.71,96.03z"/>
	</g>
</g>
</svg>
