<svg xmlns="http://www.w3.org/2000/svg" width="213.36" height="263.572" viewBox="0 0 213.36 263.572">
  <g id="flutter" transform="translate(-3553.32 -5807)">
    <path id="Path_1115" data-name="Path 1115" d="M136.28,4.09,217.95,4,80.93,140.95,45.22,176.46,4.59,135.78Zm-.76,122.28c1.06-1.4,3.01-.71,4.49-.89l77.87.02-70.97,70.9-40.84-40.59Z" transform="translate(3548.73 5803)" fill="#0096f2"/>
    <path id="Path_1117" data-name="Path 1117" d="M65.36,196.47l40.71-40.66,40.84,40.59.17.18-41,40.62L65.36,196.47Z" transform="translate(3548.73 5803)" fill="#0096f2"/>
    <path id="Path_1118" data-name="Path 1118" d="M106.08,237.2l41-40.62,70.83,70.9c-26.68.06-53.35-.02-80.02.04-1.52.34-2.46-1.05-3.43-1.91L106.08,237.2Z" transform="translate(3548.73 5803)" fill="#0096f2"/>
  </g>
</svg>
