<svg xmlns="http://www.w3.org/2000/svg" width="249" height="74" viewBox="0 0 249 74">
  <g id="Download_on_the_App_Store_Badge_US-UK_RGB_blk_092917" transform="translate(-0.426 0)">
    <g id="Group_1" data-name="Group 1" transform="translate(0.426 0)">
      <path id="Path_2" data-name="Path 2" d="M229.171,0H19.84c-.763,0-1.517,0-2.278,0-.637,0-1.269.014-1.912.023a30.844,30.844,0,0,0-4.17.327,15.105,15.105,0,0,0-3.955,1.16A13.449,13.449,0,0,0,4.157,3.695a11.744,11.744,0,0,0-2.452,3A11.293,11.293,0,0,0,.4,10.215a21.447,21.447,0,0,0-.373,3.7c-.019.567-.021,1.136-.032,1.7V58.383c.01.574.012,1.131.032,1.706a21.445,21.445,0,0,0,.373,3.7,11.27,11.27,0,0,0,1.3,3.523A11.657,11.657,0,0,0,4.157,70.3a13.107,13.107,0,0,0,3.368,2.181,15.181,15.181,0,0,0,3.955,1.167,31.4,31.4,0,0,0,4.17.327c.643.013,1.275.02,1.912.02.761,0,1.515,0,2.278,0H229.171c.748,0,1.508,0,2.256,0,.634,0,1.284-.007,1.918-.02a30.991,30.991,0,0,0,4.162-.327,15.419,15.419,0,0,0,3.971-1.167,13.111,13.111,0,0,0,3.365-2.181,12.014,12.014,0,0,0,2.459-2.986,11.29,11.29,0,0,0,1.288-3.523,22.3,22.3,0,0,0,.386-3.7c.008-.575.008-1.131.008-1.706.016-.672.016-1.341.016-2.024V17.642c0-.677,0-1.35-.016-2.02,0-.567,0-1.136-.008-1.7a22.3,22.3,0,0,0-.386-3.7A11.314,11.314,0,0,0,247.3,6.694a12.81,12.81,0,0,0-5.824-5.18,15.341,15.341,0,0,0-3.971-1.16,30.444,30.444,0,0,0-4.162-.327c-.634-.009-1.284-.02-1.918-.023-.748,0-1.508,0-2.256,0Z" transform="translate(0 0)" fill="#a6a6a6"/>
      <path id="Path_3" data-name="Path 3" d="M16.654,71.637c-.635,0-1.255-.007-1.885-.02a29.714,29.714,0,0,1-3.9-.3A13.372,13.372,0,0,1,7.421,70.3a11.314,11.314,0,0,1-2.912-1.881,10,10,0,0,1-2.127-2.584,9.778,9.778,0,0,1-1.132-3.066A20.456,20.456,0,0,1,.9,59.3c-.013-.39-.031-1.689-.031-1.689V14.878S.891,13.6.9,13.223A20.384,20.384,0,0,1,1.249,9.76,9.833,9.833,0,0,1,2.381,6.685,10.086,10.086,0,0,1,4.5,4.1,11.645,11.645,0,0,1,7.42,2.207,13.237,13.237,0,0,1,10.866,1.2,29.473,29.473,0,0,1,14.775.9L16.656.875H230.85l1.9.023a29,29,0,0,1,3.873.3,13.5,13.5,0,0,1,3.483,1.014,11.09,11.09,0,0,1,5.033,4.477,9.842,9.842,0,0,1,1.115,3.05,21.419,21.419,0,0,1,.362,3.491c.006.524.006,1.087.006,1.647.016.694.016,1.354.016,2.02V55.616c0,.672,0,1.328-.016,1.989,0,.6,0,1.153-.008,1.72a20.989,20.989,0,0,1-.356,3.429,9.8,9.8,0,0,1-1.125,3.089,10.3,10.3,0,0,1-2.117,2.564A11.322,11.322,0,0,1,240.1,70.3a13.324,13.324,0,0,1-3.477,1.017,29.372,29.372,0,0,1-3.9.3c-.61.013-1.25.02-1.87.02l-2.259,0Z" transform="translate(0.742 0.744)"/>
    </g>
    <g id="Group_5" data-name="Group 5" transform="translate(-2.021)">
      <g id="_Group_" data-name="&lt;Group&gt;" transform="translate(18.447 16.133)">
        <g id="_Group_2" data-name="&lt;Group&gt;" transform="translate(14)">
          <g id="_Group_3" data-name="&lt;Group&gt;">
            <path id="_Path_" data-name="&lt;Path&gt;" d="M37.347,25.679A9.155,9.155,0,0,1,41.706,18a9.371,9.371,0,0,0-7.384-3.992c-3.107-.326-6.118,1.859-7.7,1.859-1.614,0-4.051-1.827-6.676-1.773a9.833,9.833,0,0,0-8.275,5.047c-3.578,6.195-.909,15.3,2.518,20.306,1.715,2.452,3.719,5.191,6.341,5.094,2.566-.106,3.524-1.636,6.622-1.636,3.069,0,3.968,1.636,6.643,1.575,2.753-.045,4.488-2.463,6.143-4.938a20.28,20.28,0,0,0,2.809-5.721,8.847,8.847,0,0,1-5.4-8.138Z" transform="translate(-9.972 -4.255)" fill="#fff"/>
            <path id="_Path_2" data-name="&lt;Path&gt;" d="M24.8,15.178A9.014,9.014,0,0,0,26.859,8.72a9.171,9.171,0,0,0-5.934,3.07,8.577,8.577,0,0,0-2.116,6.219A7.583,7.583,0,0,0,24.8,15.178Z" transform="translate(-2.475 -8.72)" fill="#fff"/>
          </g>
        </g>
        <g id="Group_2" data-name="Group 2" transform="translate(66.865 16.929)">
          <path id="Path_4" data-name="Path 4" d="M49,34.842H40.239l-2.1,6.209H34.427l8.294-22.973h3.854l8.294,22.973H51.1Zm-7.85-2.865h6.941L44.666,21.9h-.1Z" transform="translate(-34.427 -17.695)" fill="#fff"/>
          <path id="Path_5" data-name="Path 5" d="M62.409,29.9c0,5.2-2.786,8.549-6.99,8.549a5.678,5.678,0,0,1-5.27-2.93h-.08v8.3H46.631V21.524h3.328V24.31h.063a5.941,5.941,0,0,1,5.333-2.961C59.607,21.349,62.409,24.709,62.409,29.9Zm-3.534,0c0-3.391-1.752-5.62-4.426-5.62-2.627,0-4.394,2.276-4.394,5.62,0,3.375,1.767,5.635,4.394,5.635,2.674,0,4.426-2.213,4.426-5.635Z" transform="translate(-24.054 -14.917)" fill="#fff"/>
          <path id="Path_6" data-name="Path 6" d="M72.374,29.9c0,5.2-2.786,8.549-6.99,8.549a5.678,5.678,0,0,1-5.27-2.93h-.08v8.3H56.6V21.524h3.328V24.31h.063a5.941,5.941,0,0,1,5.333-2.961C69.572,21.349,72.374,24.709,72.374,29.9Zm-3.534,0c0-3.391-1.752-5.62-4.426-5.62-2.627,0-4.394,2.276-4.394,5.62,0,3.375,1.767,5.635,4.394,5.635,2.674,0,4.426-2.213,4.426-5.635Z" transform="translate(-15.584 -14.917)" fill="#fff"/>
          <path id="Path_7" data-name="Path 7" d="M73.328,34.826C73.582,37.1,75.8,38.6,78.82,38.6c2.9,0,4.983-1.5,4.983-3.55,0-1.783-1.257-2.851-4.235-3.583l-2.977-.717c-4.218-1.019-6.177-2.992-6.177-6.193,0-3.964,3.454-6.686,8.359-6.686,4.854,0,8.182,2.723,8.294,6.686H83.6c-.208-2.293-2.1-3.676-4.873-3.676s-4.665,1.4-4.665,3.438c0,1.624,1.21,2.58,4.172,3.311l2.531.621c4.713,1.115,6.672,3.008,6.672,6.368,0,4.3-3.424,6.99-8.869,6.99-5.095,0-8.535-2.629-8.757-6.784Z" transform="translate(-4.354 -17.871)" fill="#fff"/>
          <path id="Path_8" data-name="Path 8" d="M86.052,19.3v3.964h3.185v2.723H86.052V35.22c0,1.434.638,2.1,2.038,2.1a10.742,10.742,0,0,0,1.131-.08V39.95a9.441,9.441,0,0,1-1.91.159c-3.391,0-4.714-1.274-4.714-4.522v-9.6H80.163V23.264H82.6V19.3Z" transform="translate(4.447 -16.657)" fill="#fff"/>
          <path id="Path_9" data-name="Path 9" d="M86.065,29.913c0-5.27,3.1-8.582,7.944-8.582,4.856,0,7.946,3.311,7.946,8.582s-3.073,8.582-7.946,8.582S86.065,35.2,86.065,29.913Zm12.386,0c0-3.615-1.657-5.749-4.443-5.749s-4.441,2.15-4.441,5.749c0,3.63,1.655,5.747,4.441,5.747s4.442-2.117,4.442-5.747Z" transform="translate(9.464 -14.93)" fill="#fff"/>
          <path id="Path_10" data-name="Path 10" d="M96.186,21.524h3.279v2.851h.08a4,4,0,0,1,4.029-3.026,5.3,5.3,0,0,1,1.178.128v3.216a4.806,4.806,0,0,0-1.545-.208,3.464,3.464,0,0,0-3.583,3.854v9.935H96.186Z" transform="translate(18.067 -14.917)" fill="#fff"/>
          <path id="Path_11" data-name="Path 11" d="M116.326,33.367c-.462,3.041-3.424,5.127-7.212,5.127-4.872,0-7.9-3.265-7.9-8.5,0-5.254,3.041-8.661,7.752-8.661,4.634,0,7.548,3.183,7.548,8.262v1.178h-11.83v.208a4.362,4.362,0,0,0,4.506,4.744,3.789,3.789,0,0,0,3.868-2.356Zm-11.622-5h8.374a4.028,4.028,0,0,0-4.108-4.251,4.24,4.24,0,0,0-4.265,4.251Z" transform="translate(22.344 -14.93)" fill="#fff"/>
        </g>
      </g>
      <g id="_Group_4" data-name="&lt;Group&gt;" transform="translate(87.612 15.609)">
        <g id="Group_4" data-name="Group 4">
          <path id="Path_12" data-name="Path 12" d="M39.658,8.737a4.883,4.883,0,0,1,5.194,5.485c0,3.527-1.906,5.554-5.194,5.554H35.671V8.737Zm-2.273,9.478h2.081a3.47,3.47,0,0,0,3.64-3.97,3.48,3.48,0,0,0-3.64-3.947H37.385Z" transform="translate(-35.671 -8.193)" fill="#fff"/>
          <path id="Path_13" data-name="Path 13" d="M41.689,14.43a3.946,3.946,0,1,1,7.857,0,3.947,3.947,0,1,1-7.857,0Zm6.166,0c0-1.806-.811-2.862-2.235-2.862s-2.233,1.056-2.233,2.862.8,2.868,2.233,2.868S47.855,16.243,47.855,14.43Z" transform="translate(-30.571 -7.017)" fill="#fff"/>
          <path id="Path_14" data-name="Path 14" d="M55.827,18.525H54.121L52.4,12.39h-.13l-1.715,6.135H48.866l-2.3-8.33h1.668l1.492,6.357h.123l1.713-6.357h1.577l1.713,6.357h.13l1.485-6.357h1.644Z" transform="translate(-26.407 -6.943)" fill="#fff"/>
          <path id="Path_15" data-name="Path 15" d="M53.854,10.272h1.583V11.6h.123a2.494,2.494,0,0,1,2.486-1.484,2.709,2.709,0,0,1,2.883,3.1V18.6H59.284v-4.98c0-1.339-.582-2-1.8-2A1.911,1.911,0,0,0,55.5,13.73V18.6H53.854Z" transform="translate(-20.216 -7.021)" fill="#fff"/>
          <path id="Path_16" data-name="Path 16" d="M59.094,8.437h1.644V20.019H59.094Z" transform="translate(-15.762 -8.437)" fill="#fff"/>
          <path id="Path_17" data-name="Path 17" d="M61.226,14.43a3.947,3.947,0,1,1,7.858,0,3.948,3.948,0,1,1-7.858,0Zm6.166,0c0-1.806-.811-2.862-2.235-2.862s-2.233,1.056-2.233,2.862.8,2.868,2.233,2.868S67.392,16.243,67.392,14.43Z" transform="translate(-13.965 -7.017)" fill="#fff"/>
          <path id="Path_18" data-name="Path 18" d="M66.4,16.243c0-1.5,1.117-2.364,3.1-2.487l2.256-.13v-.719c0-.88-.582-1.377-1.705-1.377-.918,0-1.554.337-1.736.926H66.722c.168-1.431,1.514-2.349,3.4-2.349,2.088,0,3.266,1.04,3.266,2.8V18.6H71.81V17.428h-.13a2.8,2.8,0,0,1-2.5,1.308A2.516,2.516,0,0,1,66.4,16.243Zm5.355-.712v-.7l-2.034.13c-1.147.077-1.668.467-1.668,1.2,0,.75.65,1.186,1.545,1.186a1.964,1.964,0,0,0,2.157-1.821Z" transform="translate(-9.551 -7.017)" fill="#fff"/>
          <path id="Path_19" data-name="Path 19" d="M71.348,15.85c0-2.632,1.353-4.3,3.458-4.3a2.745,2.745,0,0,1,2.555,1.461h.123V8.437h1.644V20.019H77.552V18.7h-.13a2.891,2.891,0,0,1-2.616,1.453C72.687,20.157,71.348,18.489,71.348,15.85Zm1.7,0c0,1.767.833,2.83,2.226,2.83s2.242-1.079,2.242-2.823-.865-2.83-2.242-2.83S73.046,14.1,73.046,15.85Z" transform="translate(-5.345 -8.437)" fill="#fff"/>
          <path id="Path_20" data-name="Path 20" d="M79.239,14.43a3.946,3.946,0,1,1,7.857,0,3.947,3.947,0,1,1-7.857,0Zm6.166,0c0-1.806-.811-2.862-2.235-2.862s-2.233,1.056-2.233,2.862.8,2.868,2.233,2.868S85.4,16.243,85.4,14.43Z" transform="translate(1.346 -7.017)" fill="#fff"/>
          <path id="Path_21" data-name="Path 21" d="M84.669,10.272h1.583V11.6h.123a2.494,2.494,0,0,1,2.486-1.484,2.709,2.709,0,0,1,2.883,3.1V18.6H90.1v-4.98c0-1.339-.582-2-1.8-2a1.911,1.911,0,0,0-1.989,2.111V18.6H84.669Z" transform="translate(5.978 -7.021)" fill="#fff"/>
          <path id="Path_22" data-name="Path 22" d="M94.879,9.074v2.112h1.8V12.57h-1.8v4.284c0,.873.36,1.255,1.178,1.255a5.488,5.488,0,0,0,.627-.038V19.44a5.394,5.394,0,0,1-.894.084c-1.828,0-2.556-.643-2.556-2.249v-4.7H91.911V11.186h1.322V9.074Z" transform="translate(12.133 -7.896)" fill="#fff"/>
          <path id="Path_23" data-name="Path 23" d="M95.7,8.437h1.63v4.591h.13A2.563,2.563,0,0,1,100,11.535a2.744,2.744,0,0,1,2.869,3.106v5.378h-1.646V15.047c0-1.331-.62-2-1.781-2a1.946,1.946,0,0,0-2.1,2.112v4.865H95.7Z" transform="translate(15.357 -8.437)" fill="#fff"/>
          <path id="Path_24" data-name="Path 24" d="M108.2,16.35a3.382,3.382,0,0,1-3.61,2.41,3.784,3.784,0,0,1-3.848-4.3,3.842,3.842,0,0,1,3.841-4.352c2.318,0,3.716,1.584,3.716,4.2v.574h-5.882v.092a2.2,2.2,0,0,0,2.219,2.386,2,2,0,0,0,1.982-1.01Zm-5.783-2.685h4.208a2.01,2.01,0,0,0-2.051-2.158,2.131,2.131,0,0,0-2.157,2.158Z" transform="translate(19.613 -7.017)" fill="#fff"/>
        </g>
      </g>
    </g>
  </g>
</svg>
