<svg xmlns="http://www.w3.org/2000/svg" xmlns:xlink="http://www.w3.org/1999/xlink" width="360" height="202.5" viewBox="0 0 360 202.5">
  <defs>
    <clipPath id="clip-path">
      <path id="path3470" d="M0-405H360v202.5H0Z" transform="translate(0 405)" fill="#0096f2"/>
    </clipPath>
    <clipPath id="clip-path-2">
      <path id="path3482" d="M0-405H308.036v173.27H0Z" transform="translate(0 405)"/>
    </clipPath>
  </defs>
  <g id="php" transform="translate(-3660 -4899)">
    <g id="g3466" transform="translate(3660 4899)" clip-path="url(#clip-path)">
      <g id="g3472" transform="translate(13.95 17.099)">
        <path id="path3474" d="M-166.05-168.3C-74.344-168.3,0-205.977,0-252.452S-74.344-336.6-166.05-336.6-332.1-298.926-332.1-252.452-257.756-168.3-166.05-168.3" transform="translate(332.1 336.603)" fill="#0096f2"/>
      </g>
    </g>
    <g id="g3478" transform="translate(3685.982 4913.615)" clip-path="url(#clip-path-2)">
      <g id="g3484" transform="translate(51.164 50.641)">
        <path id="path3486" d="M-47.249-60.078c6.452,0,11.269-1.19,14.317-3.535,3.015-2.321,5.1-6.344,6.189-11.954,1.018-5.244.63-8.906-1.152-10.882-1.822-2.018-5.761-3.042-11.708-3.042H-49.914L-55.63-60.078ZM-80.974-23.847a1.6,1.6,0,0,1-1.237-.584,1.6,1.6,0,0,1-.337-1.326L-67.4-103.7a1.6,1.6,0,0,1,1.575-1.3h32.651c10.261,0,17.9,2.786,22.7,8.282,4.826,5.525,6.317,13.248,4.43,22.953A36.637,36.637,0,0,1-9.969-62.85,36.545,36.545,0,0,1-17.195-53.8a31.7,31.7,0,0,1-11.891,7.125,53.865,53.865,0,0,1-16.337,2.1H-58.644l-3.776,19.424a1.6,1.6,0,0,1-1.574,1.3Z" transform="translate(82.578 105)" fill="#fff"/>
      </g>
      <g id="g3492" transform="translate(123.446 29.918)">
        <path id="path3494" d="M-57.754-108.534a1.6,1.6,0,0,1-1.237-.584,1.6,1.6,0,0,1-.337-1.326l6.7-34.488c.637-3.28.48-5.634-.442-6.629-.565-.608-2.261-1.628-7.277-1.628H-72.487l-8.426,43.356a1.6,1.6,0,0,1-1.575,1.3H-99.333a1.6,1.6,0,0,1-1.238-.584,1.6,1.6,0,0,1-.337-1.326l15.149-77.945a1.6,1.6,0,0,1,1.575-1.3h16.846a1.6,1.6,0,0,1,1.238.583,1.6,1.6,0,0,1,.337,1.327l-3.656,18.813h13.06c9.95,0,16.7,1.754,20.626,5.363,4.006,3.681,5.255,9.568,3.715,17.5l-7.048,36.272a1.6,1.6,0,0,1-1.575,1.3Z" transform="translate(100.938 189.688)" fill="#fff"/>
      </g>
      <g id="g3500" transform="translate(183.692 50.641)">
        <path id="path3502" d="M-47.249-60.078c6.452,0,11.269-1.19,14.317-3.535,3.015-2.321,5.1-6.343,6.19-11.954,1.018-5.244.63-8.906-1.152-10.882-1.822-2.018-5.761-3.042-11.708-3.042H-49.914L-55.63-60.078ZM-80.973-23.847a1.6,1.6,0,0,1-1.237-.584,1.6,1.6,0,0,1-.337-1.326L-67.4-103.7a1.605,1.605,0,0,1,1.575-1.3h32.65c10.262,0,17.9,2.786,22.7,8.282,4.826,5.524,6.316,13.247,4.43,22.953A36.667,36.667,0,0,1-9.969-62.85,36.545,36.545,0,0,1-17.195-53.8a31.7,31.7,0,0,1-11.891,7.125,53.865,53.865,0,0,1-16.337,2.1H-58.644l-3.774,19.424a1.605,1.605,0,0,1-1.575,1.3Z" transform="translate(82.578 105)" fill="#fff"/>
      </g>
    </g>
  </g>
</svg>
