<svg xmlns="http://www.w3.org/2000/svg" width="257.17" height="257.246" viewBox="0 0 257.17 257.246">
  <g id="qa" transform="translate(-156.08 -31.561)">
    <path id="Path_1156" data-name="Path 1156" d="M407.055,145.175l-14.791-14.791a35.426,35.426,0,0,1-10.441-25.231V84.235a21.235,21.235,0,0,0-21.208-21.208H339.7A35.6,35.6,0,0,1,314.43,52.55L299.639,37.76a21.224,21.224,0,0,0-29.981,0L254.868,52.55a35.461,35.461,0,0,1-25.231,10.477H208.718a21.212,21.212,0,0,0-21.208,21.208v20.954A35.424,35.424,0,0,1,177.07,130.42l-14.791,14.791a21.224,21.224,0,0,0,0,29.981l14.791,14.791a35.426,35.426,0,0,1,10.441,25.231v20.918a21.212,21.212,0,0,0,21.208,21.208h20.918a36.43,36.43,0,0,1,8.918,1.124h.036a26.487,26.487,0,0,1,9.172,3.807,35.911,35.911,0,0,1,7.106,5.51l14.791,14.791a21.536,21.536,0,0,0,3.154,2.61,15.5,15.5,0,0,0,1.523.943c.109.073.217.109.326.181a21.19,21.19,0,0,0,19.975,0c.109-.072.218-.109.326-.181.508-.29,1.015-.58,1.486-.906a22.248,22.248,0,0,0,3.19-2.61l14.791-14.791a36.758,36.758,0,0,1,7.069-5.51,25.708,25.708,0,0,1,9.208-3.806,36.654,36.654,0,0,1,8.918-1.124h20.918a21.212,21.212,0,0,0,21.208-21.208V215.25a35.248,35.248,0,0,1,10.477-25.231l14.791-14.791a21.279,21.279,0,0,0,.036-30.053ZM284.63,232.433a72.27,72.27,0,1,1,72.25-72.289A72.329,72.329,0,0,1,284.63,232.433Z" transform="translate(0)" fill="#0096f2"/>
    <path id="Path_1157" data-name="Path 1157" d="M372.236,191.683l-57.6,57.6L281.75,216.407,297.121,201l17.51,17.51,42.234-42.2Z" transform="translate(-42.363 -48.795)" fill="#0096f2"/>
  </g>
</svg>
