<svg xmlns="http://www.w3.org/2000/svg" width="295.968" height="263.572" viewBox="0 0 295.968 263.572">
  <g id="React-icon" transform="translate(-175.7 -78)">
    <path id="Path_1119" data-name="Path 1119" d="M471.668,209.816c0-19.607-24.553-38.188-62.2-49.71,8.687-38.368,4.826-68.894-12.186-78.667a26.45,26.45,0,0,0-13.513-3.378V91.513a13.97,13.97,0,0,1,6.877,1.569c8.2,4.706,11.764,22.623,8.989,45.668-.664,5.671-1.75,11.643-3.077,17.736a292.36,292.36,0,0,0-38.308-6.576,294.282,294.282,0,0,0-25.1-30.164c19.667-18.279,38.127-28.294,50.675-28.294V78h0c-16.59,0-38.308,11.824-60.267,32.336C301.6,89.945,279.886,78.241,263.3,78.241V91.694c12.488,0,31.008,9.954,50.675,28.113a284.935,284.935,0,0,0-24.915,30.1,281.716,281.716,0,0,0-38.368,6.636c-1.388-6.033-2.413-11.885-3.137-17.5-2.835-23.045.664-40.963,8.808-45.728a13.426,13.426,0,0,1,6.938-1.569V78.3h0a26.9,26.9,0,0,0-13.634,3.378c-16.952,9.773-20.753,40.239-12.005,78.487-37.524,11.583-61.957,30.1-61.957,49.65,0,19.607,24.553,38.188,62.2,49.71-8.687,38.369-4.826,68.894,12.186,78.668a26.52,26.52,0,0,0,13.574,3.378c16.59,0,38.308-11.824,60.267-32.336,21.959,20.391,43.677,32.094,60.268,32.094a26.9,26.9,0,0,0,13.634-3.378c16.952-9.773,20.753-40.239,12.005-78.487C447.236,247.944,471.668,229.363,471.668,209.816Zm-78.547-40.239c-2.232,7.782-5.007,15.806-8.144,23.829-2.473-4.826-5.068-9.652-7.9-14.479-2.775-4.826-5.731-9.532-8.687-14.117C376.954,166.079,385.219,167.647,393.122,169.578Zm-27.63,64.249c-4.706,8.144-9.532,15.866-14.539,23.045-8.989.784-18.1,1.207-27.268,1.207-9.109,0-18.219-.422-27.148-1.146q-7.511-10.769-14.6-22.925Q275.06,222.153,269.389,210c3.74-8.084,7.963-16.168,12.488-24.071,4.706-8.144,9.532-15.866,14.539-23.045,8.989-.784,18.1-1.207,27.268-1.207,9.109,0,18.219.422,27.148,1.146q7.511,10.769,14.6,22.925,6.877,11.854,12.548,24.01C374.179,217.84,370.016,225.924,365.491,233.827Zm19.486-7.843c3.258,8.084,6.033,16.168,8.325,24.01-7.9,1.93-16.228,3.559-24.855,4.826,2.956-4.645,5.912-9.411,8.687-14.3C379.91,235.7,382.5,230.81,384.977,225.984ZM323.8,290.354a248.711,248.711,0,0,1-16.771-19.3c5.43.241,10.98.422,16.59.422,5.671,0,11.281-.121,16.771-.422A235.481,235.481,0,0,1,323.8,290.354Zm-44.884-35.533c-8.567-1.267-16.831-2.835-24.734-4.766,2.232-7.782,5.007-15.806,8.144-23.829,2.473,4.826,5.068,9.652,7.9,14.479S275.965,250.236,278.921,254.821ZM323.5,129.279a248.708,248.708,0,0,1,16.771,19.3c-5.43-.241-10.98-.422-16.59-.422-5.671,0-11.281.121-16.771.422A235.472,235.472,0,0,1,323.5,129.279Zm-44.643,35.533c-2.956,4.645-5.912,9.411-8.687,14.3-2.775,4.826-5.369,9.652-7.843,14.479-3.258-8.084-6.033-16.168-8.325-24.01C261.909,167.707,270.234,166.079,278.861,164.812Zm-54.6,75.53c-21.356-9.109-35.171-21.054-35.171-30.526s13.815-21.477,35.171-30.526c5.188-2.232,10.859-4.223,16.711-6.093a289.747,289.747,0,0,0,13.574,36.74A285.663,285.663,0,0,0,241.156,246.5C235.183,244.625,229.512,242.574,224.264,240.342Zm32.456,86.208c-8.2-4.706-11.764-22.623-8.989-45.668.664-5.671,1.75-11.643,3.077-17.736a292.365,292.365,0,0,0,38.308,6.576,294.282,294.282,0,0,0,25.1,30.164c-19.667,18.279-38.127,28.294-50.675,28.294A14.4,14.4,0,0,1,256.72,326.551Zm143.1-45.97c2.835,23.045-.664,40.963-8.808,45.728a13.426,13.426,0,0,1-6.938,1.569c-12.488,0-31.009-9.954-50.675-28.113a284.94,284.94,0,0,0,24.915-30.1,281.719,281.719,0,0,0,38.368-6.636A168.9,168.9,0,0,1,399.818,280.581Zm23.226-40.239c-5.188,2.232-10.859,4.223-16.711,6.093A289.747,289.747,0,0,0,392.76,209.7a285.663,285.663,0,0,0,13.393-36.559c5.972,1.87,11.643,3.921,16.952,6.153,21.356,9.109,35.171,21.054,35.171,30.526C458.215,219.288,444.4,231.293,423.044,240.342Z" transform="translate(0)" fill="#0096f2"/>
    <path id="Path_1120" data-name="Path 1120" d="M320.8,78.4Z" transform="translate(-57.564 -0.159)" fill="#0096f2"/>
    <circle id="Ellipse_279" data-name="Ellipse 279" cx="27.57" cy="27.57" r="27.57" transform="translate(296.054 182.246)" fill="#0096f2"/>
    <path id="Path_1121" data-name="Path 1121" d="M520.5,78.1Z" transform="translate(-136.79 -0.04)" fill="#0096f2"/>
  </g>
</svg>
